<?xml version="1.0" encoding="utf-8"?>
<!-- Generator: Adobe Illustrator 24.1.2, SVG Export Plug-In . SVG Version: 6.00 Build 0)  -->
<svg version="1.1" id="Слой_1" xmlns="http://www.w3.org/2000/svg" xmlns:xlink="http://www.w3.org/1999/xlink" x="0px" y="0px"
	 viewBox="0 0 74 92" style="enable-background:new 0 0 74 92;" xml:space="preserve">
<style type="text/css">
	.st0{display:none;fill:#00032C;}
	.st1{fill:#FFFFFF;}
	.st2{fill:#FF010C;}
</style>
<rect x="-582.2" y="-360" class="st0" width="1400" height="810"/>
<g id="ship-group">
	<g id="ship">
		<g id="XMLID_284_">
			<path id="XMLID_288_" class="st1" d="M47,71.3c0-2.2-1.8-3.9-3.9-3.9H40v-8.2c0-1-0.8-1.8-1.8-1.8h-6.2c-1,0-1.8,0.8-1.8,1.8v8.2
				h-3V50.6c0-1-0.8-1.8-1.8-1.8h-6.2c-1,0-1.8,0.8-1.8,1.8v16.7h-0.1c-2.2,0-3.9,1.8-3.9,3.9v0.3L47,75.4L47,71.3L47,71.3z"/>
			<path id="XMLID_287_" class="st1" d="M57.6,81c0.2-0.5,0.2-1.1-0.1-1.6s-0.8-0.8-1.4-0.9l-53.6-6c-0.1,0-0.1,0-0.2,0
				c-0.5,0-1.1,0.2-1.4,0.7c-0.4,0.5-0.5,1.1-0.3,1.7l4.6,14.6c0.4,1.3,1.6,2.2,3,2.2h42.9c1.3,0,2.4-0.7,2.9-1.9L57.6,81z"/>
		</g>
	</g>
	<g id="drop-group">
		<g id="drop" transform="matrix(-1,-1.2246467991473532e-16,1.2246467991473532e-16,-1,37.60800075531006,37.60700225830078)">
			<g>
				<path class="st2" d="M3.4,17.6c0,11-9,20-20,20s-20-9-20-20c0-9.6,14-31.6,16.8-36c0.7-1.1,1.9-1.8,3.2-1.8s2.5,0.7,3.2,1.8
					C-10.5-14,3.4,8,3.4,17.6z"/>
			</g>
		</g>
		<g id="printer">
			<path class="st1" d="M60.9,14.8H46.1c-0.3,0-0.5-0.2-0.5-0.5v-1.2c0-1.1,0.9-2.1,2.1-2.1h11.6c1.1,0,2.1,0.9,2.1,2.1v1.2
				C61.4,14.6,61.2,14.8,60.9,14.8z"/>
			<path class="st1" d="M63,16.3H44.1c-1.4,0-2.5,1.1-2.5,2.5v8.8c0,1.4,1.1,2.5,2.5,2.5h1.6v-3.7c0-1.9,1.5-3.4,3.4-3.4h9
				c1.9,0,3.4,1.5,3.4,3.4v3.7H63c1.4,0,2.5-1.1,2.5-2.5v-8.8C65.5,17.4,64.4,16.3,63,16.3z M46,21.9c-0.6,0-1.1-0.5-1.1-1.1
				s0.5-1.1,1.1-1.1h0c0.6,0,1.1,0.5,1.1,1.1S46.7,21.9,46,21.9z"/>
			<path class="st1" d="M58,25.2h-9c-0.6,0-1.1,0.5-1.1,1.1v3.7v1.5c0,0.6,0.5,1.1,1.1,1.1h9c0.6,0,1.1-0.5,1.1-1.1v-1.5v-3.7
				C59.1,25.7,58.6,25.2,58,25.2z"/>
		</g>
	</g>
</g>
</svg>
